<svg width="293" height="302" viewBox="0 0 293 302" fill="none"
    xmlns="http://www.w3.org/2000/svg">
    <path fill-rule="evenodd" clip-rule="evenodd" d="M146.271 37.1694L220.271 192.669H240.771C247.553 199.765 247.04 203.201 240.771 208.669H227.771L242.771 241.669C248.452 235.075 251.506 230.867 256.771 222.669C266.06 207.847 269.757 198.387 273.271 179.169C276.715 158.46 276.069 145.986 271.771 122.669C267.337 106.423 263.382 97.3422 253.271 81.1694C252.978 70.732 258.895 67.9393 267.271 72.1694C282.047 96.7282 287.179 110.764 291.271 136.169C293.399 167.791 291.292 183.605 281.771 208.669C272.171 231.944 265.003 242.679 249.271 258.169C232.911 273.111 222.481 280.506 200.771 289.669C174.254 300.178 158.149 302.017 127.771 299.669C99.2977 294.524 84.9188 288.561 61.7709 273.169C37.2505 255.488 26.1982 242.379 12.2709 212.169C1.35567 182.412 -0.790858 164.333 2.27091 129.669C10.4952 97.4132 17.5335 81.2124 35.7709 56.6694C58.1878 30.6099 73.4065 20.0378 104.771 8.16942C132.157 -0.0376902 146.409 -0.70407 170.271 3.66942L189.771 8.16942C198.605 15.6391 195.443 24.008 184.271 23.1694L164.771 18.6694C149.269 16.5322 140.364 16.7362 124.771 19.1694C105.095 23.5675 94.7117 27.8177 77.7715 39.6694C57.9146 54.0034 48.9349 63.6352 36.7715 83.6694C25.9473 102.815 21.6918 114.506 17.7715 137.669C15.9653 158.251 16.4931 170.025 21.7715 191.669H183.271L145.771 110.669L115.271 178.169H79.2715L146.271 37.1694ZM64.2715 208.669H28.7715C34.8898 223.107 39.8315 230.076 49.7715 241.669L64.2715 208.669ZM191.271 208.669H101.771L76.7715 263.169C93.5124 274.286 104.195 278.665 126.271 282.169C144.178 284.77 155.347 284.59 175.771 281.169C194.63 275.554 203.707 271.749 215.771 263.169L191.271 208.669Z" fill="#D4D4D4" stroke="#D4D4D4"/>
</svg>